<svg xmlns="http://www.w3.org/2000/svg" viewBox="0 0 180 180"><path d="M121.42,131.89c-5.76,0-8.52-3.68-8.52-9.21,0-17.72,12.66-70.66,15.88-81.94C79.06,38,48.68,77.57,48.68,118.31c0,14.5,7.59,22.1,16.11,22.1,12,0,25.55-26.71,58-90.46l1.38.46c-5.75,16.57-15.65,45.34-15.65,58,0,17.27,7.13,31.77,16.11,32,15.65,0,50.41-23.25,50.41-67.44,0-41.9-28.31-73-63.76-73C50.52,0,5,55.48,5,106.57,5,149.62,33.26,180,70.78,180c18.87,0,38.21-12.43,47.65-24.63l-.93-.92c-14,10.59-31.07,18.87-51.56,18.87-33.14,0-55.7-20.48-55.7-57.08,0-57.54,42.35-110,105.19-110,31.08,0,53.63,20.25,53.63,53.63C169.06,109.57,142.82,131.89,121.42,131.89ZM62,130.28c-7.36,0-11.51-3.91-11.51-12.2,0-26.47,26.24-64.22,74.35-75.72C90.8,108.19,74,130.28,62,130.28Z" fill="#231f20"/></svg>